<?xml version="1.0" encoding="iso-8859-1"?>
<!-- Uploaded to: SVG Repo, www.svgrepo.com, Generator: SVG Repo Mixer Tools -->
<svg fill="#000000" height="800px" width="800px" version="1.1" id="Layer_1" xmlns="http://www.w3.org/2000/svg" xmlns:xlink="http://www.w3.org/1999/xlink" 
	 viewBox="0 0 512 512" xml:space="preserve">
<g>
	<g>
		<path d="M255.999,101.248c-16.518,0-29.957,13.438-29.957,29.957c0,16.519,13.439,29.957,29.957,29.957
			c16.518,0,29.957-13.438,29.957-29.957C285.957,114.686,272.517,101.248,255.999,101.248z M255.999,144.822
			c-7.509,0-13.617-6.108-13.617-13.617c0-7.509,6.108-13.617,13.617-13.617c7.509,0,13.617,6.108,13.617,13.617
			C269.616,138.714,263.508,144.822,255.999,144.822z"/>
	</g>
</g>
<g>
	<g>
		<path d="M401.826,270.098c-4.513,0-8.17,3.658-8.17,8.17v2.723h-40.089l-43.21-118.72c5.258-9.164,8.281-19.765,8.281-31.066
			c0-25.845-15.736-48.081-38.128-57.639V8.17c0-4.512-3.657-8.17-8.17-8.17h-32.681c-4.513,0-8.17,3.658-8.17,8.17v65.396
			c-22.392,9.558-38.128,31.794-38.128,57.639c0,11.301,3.024,21.903,8.281,31.066l-43.21,118.72h-40.089v-2.723
			c0-4.512-3.657-8.17-8.17-8.17c-4.513,0-8.17,3.658-8.17,8.17v21.787c0,4.512,3.657,8.17,8.17,8.17c4.513,0,8.17-3.658,8.17-8.17
			v-2.723h34.143l-39.186,107.662c-7.777,21.369,1.232,44.813,20.245,55.855l-14.626,40.184c-1.544,4.24,0.644,8.928,4.883,10.472
			c0.924,0.336,1.866,0.495,2.793,0.495c3.337,0,6.471-2.061,7.679-5.378l76.175-209.289h37.381v19.064
			c0,4.512,3.657,8.17,8.17,8.17c4.513,0,8.17-3.658,8.17-8.17v-19.064h37.381l76.175,209.289c1.207,3.318,4.34,5.378,7.679,5.378
			c0.928,0,1.872-0.159,2.793-0.495c4.24-1.544,6.426-6.232,4.882-10.472l-14.625-40.182c8.105-4.703,14.594-11.764,18.656-20.476
			c5.239-11.234,5.802-23.8,1.587-35.381l-39.185-107.663h34.143v2.723c0,4.512,3.657,8.17,8.17,8.17c4.513,0,8.17-3.658,8.17-8.17
			v-21.787C409.996,273.757,406.339,270.098,401.826,270.098z M247.829,16.34h16.34v52.777c-2.677-0.351-5.4-0.55-8.17-0.55
			c-2.77,0-5.494,0.199-8.17,0.55V16.34z M255.999,84.908c25.529,0,46.298,20.769,46.298,46.298
			c0,25.529-20.769,46.298-46.298,46.298s-46.298-20.769-46.298-46.298C209.702,105.676,230.47,84.908,255.999,84.908z
			 M139.273,445.111c-4.081-2.953-7.376-6.922-9.577-11.641c-3.393-7.279-3.764-15.408-1.041-22.887l41.22-113.251h23.185
			L139.273,445.111z M199.006,280.992h-23.185l37.76-103.747c5.469,5.042,11.835,9.118,18.827,11.972L199.006,280.992z
			 M264.17,280.992v-19.064c0-4.512-3.657-8.17-8.17-8.17c-4.513,0-8.17,3.658-8.17,8.17v19.064h-31.433l31.897-87.64
			c2.527,0.312,5.095,0.491,7.706,0.491s5.178-0.18,7.706-0.491l31.897,87.64H264.17z M279.589,189.217
			c6.993-2.854,13.359-6.93,18.827-11.973l37.76,103.748h-23.185L279.589,189.217z M383.344,410.584
			c2.722,7.479,2.352,15.607-1.041,22.886c-2.2,4.719-5.496,8.687-9.576,11.641l-53.787-147.779h23.185L383.344,410.584z"/>
	</g>
</g>
</svg>